<svg width="143" height="143" viewBox="0 0 143 143" fill="none" xmlns="http://www.w3.org/2000/svg">
<g filter="url(#filter0_d_102_226)">
<path d="M139 67.5C139 104.779 108.779 135 71.5 135C34.2208 135 4 104.779 4 67.5C4 30.2208 34.2208 0 71.5 0C108.779 0 139 30.2208 139 67.5Z" fill="#7BC1B7"/>
</g>
<path d="M114.543 59.8687C116.479 60.5539 117.492 62.6748 116.807 64.6112L116.814 64.606L111.948 78.3884C111.046 80.9323 109.355 83.1245 107.125 84.638L82.4769 101.365C81.1157 102.289 79.2696 101.935 78.3459 100.574L75.0057 95.6521C74.082 94.2909 74.4354 92.4448 75.7966 91.5211L78.6267 89.6005L80.2008 84.4886C81.0019 81.912 82.6539 79.6789 84.8918 78.1602L97.0657 69.8986C98.4269 68.9748 100.273 69.3282 101.197 70.6894C102.12 72.0506 101.767 73.8966 100.406 74.8204L94.2535 78.9956C93.5768 79.4548 93.3989 80.3843 93.8581 81.0611C94.3174 81.7378 95.2469 81.9158 95.9236 81.4565L105.198 75.1624L109.801 62.1324C110.486 60.196 112.607 59.1835 114.543 59.8687Z" fill="white"/>
<path d="M27.2473 59.8687C25.3108 60.5539 24.2983 62.6748 24.9835 64.6112L24.9759 64.606L29.8426 78.3883C30.7445 80.9323 32.4355 83.1245 34.6657 84.638L59.3134 101.365C60.6746 102.289 62.5207 101.935 63.4444 100.574L66.7846 95.6521C67.7083 94.2909 67.3549 92.4448 65.9937 91.5211L63.1636 89.6005L61.5895 84.4886C60.7884 81.912 59.1364 79.6789 56.8985 78.1601L44.7246 69.8985C43.3634 68.9748 41.5173 69.3282 40.5936 70.6894C39.6698 72.0506 40.0232 73.8966 41.3844 74.8204L47.5368 78.9956C48.2135 79.4548 48.3915 80.3843 47.9322 81.0611C47.4729 81.7378 46.5434 81.9157 45.8667 81.4565L36.5921 75.1624L31.9898 62.1324C31.3046 60.196 29.1837 59.1835 27.2473 59.8687Z" fill="white"/>
<path d="M79.7798 33.75C81.7863 33.7451 83.7745 34.1616 85.6274 34.9756C87.4143 35.7575 89.0424 36.8956 90.4233 38.3271C91.8032 39.7544 92.9071 41.4523 93.6724 43.3262C94.466 45.2765 94.8714 47.348 94.8657 49.4795C94.8657 51.4901 94.4773 53.5854 93.7065 55.7168C93.067 57.4981 92.1365 59.3461 90.9546 61.2119C89.0818 64.1645 86.5064 67.2436 83.3091 70.3652C78.0058 75.5388 72.7653 79.1074 72.5405 79.2598L71.187 80.1777C70.5876 80.5821 69.8167 80.582 69.2173 80.1777L67.8638 79.2598C67.6411 79.1149 62.3939 75.5399 57.0952 70.3652C53.8978 67.2436 51.3225 64.1645 49.4497 61.2119C48.2678 59.3461 47.343 57.498 46.6978 55.7168C45.9269 53.5854 45.5386 51.4902 45.5386 49.4795C45.5386 47.348 45.9441 45.2765 46.7378 43.3262C47.5011 41.4511 48.6051 39.7528 49.9868 38.3271C51.3743 36.8901 52.9899 35.7605 54.7827 34.9756C56.6383 34.1605 58.6025 33.75 60.6294 33.75C63.4443 33.75 66.191 34.5648 68.5776 36.1045C69.1485 36.4728 69.6908 36.8777 70.2046 37.3184C70.7185 36.8776 71.2615 36.4728 71.8325 36.1045C74.219 34.565 76.9652 33.7501 79.7798 33.75ZM69.6968 49.3271V55.3125H63.7114V58.2881H69.6968V64.2842H72.6733V58.2881H78.6694V55.3125H72.6733V49.3271H69.6968Z" fill="white"/>
<defs>
<filter id="filter0_d_102_226" x="0" y="0" width="143" height="143" filterUnits="userSpaceOnUse" color-interpolation-filters="sRGB">
<feFlood flood-opacity="0" result="BackgroundImageFix"/>
<feColorMatrix in="SourceAlpha" type="matrix" values="0 0 0 0 0 0 0 0 0 0 0 0 0 0 0 0 0 0 127 0" result="hardAlpha"/>
<feOffset dy="4"/>
<feGaussianBlur stdDeviation="2"/>
<feComposite in2="hardAlpha" operator="out"/>
<feColorMatrix type="matrix" values="0 0 0 0 0 0 0 0 0 0 0 0 0 0 0 0 0 0 0.25 0"/>
<feBlend mode="normal" in2="BackgroundImageFix" result="effect1_dropShadow_102_226"/>
<feBlend mode="normal" in="SourceGraphic" in2="effect1_dropShadow_102_226" result="shape"/>
</filter>
</defs>
</svg>
